<svg width="39" height="39" viewBox="0 0 39 39" fill="none" xmlns="http://www.w3.org/2000/svg">
<g filter="url(#filter0_d_1_39)">
<path d="M26.7333 9.81667H20.5333V5.68333H31.9C32.3109 5.68287 32.7049 5.51942 32.9955 5.22884C33.2861 4.93826 33.4495 4.54428 33.45 4.13333V0H31.3833V3.61667H20.0167C19.6057 3.61713 19.2117 3.78058 18.9212 4.07116C18.6306 4.36174 18.4671 4.75572 18.4667 5.16667V9.81667H12.2667C10.075 9.81915 7.97375 10.6909 6.42399 12.2407C4.87422 13.7904 4.00248 15.8916 4 18.0833V24.6032C4.00176 26.1622 4.62184 27.6568 5.72419 28.7591C6.82655 29.8615 8.32115 30.4816 9.88012 30.4833H9.99637C10.8586 30.4845 11.7106 30.2955 12.4914 29.9298C13.2723 29.5641 13.963 29.0307 14.5142 28.3676L17.9177 24.2833H21.0583L24.4596 28.705C25.2084 29.6782 26.243 30.3926 27.4184 30.7479C28.5938 31.1033 29.8509 31.0817 31.0134 30.6863C32.1759 30.2909 33.1855 29.5415 33.9004 28.5432C34.6154 27.5449 34.9999 26.3478 35 25.1199V18.0833C34.9975 15.8916 34.1258 13.7904 32.576 12.2407C31.0262 10.6909 28.925 9.81915 26.7333 9.81667ZM32.9333 25.1199C32.9333 25.9163 32.684 26.6927 32.2203 27.3402C31.7565 27.9876 31.1018 28.4737 30.3478 28.7301C29.5938 28.9866 28.7785 29.0005 28.0161 28.77C27.2538 28.5395 26.5828 28.0761 26.0973 27.4449L22.0755 22.2167H16.9493L12.9262 27.0445C12.5688 27.4745 12.1209 27.8204 11.6145 28.0576C11.1082 28.2948 10.5557 28.4174 9.99656 28.4167H9.88031C8.86924 28.4156 7.89987 28.0135 7.18492 27.2986C6.46996 26.5836 6.06779 25.6143 6.06667 24.6032V18.0833C6.06851 16.4396 6.72232 14.8636 7.88464 13.7013C9.04697 12.539 10.6229 11.8852 12.2667 11.8833H26.7333C28.3771 11.8852 29.953 12.539 31.1154 13.7013C32.2777 14.8636 32.9315 16.4396 32.9333 18.0833V25.1199Z" fill="white"/>
<path d="M28.2833 14.9833H26.2167V17.05H28.2833V14.9833Z" fill="white"/>
<path d="M28.2833 20.15H26.2167V22.2167H28.2833V20.15Z" fill="white"/>
<path d="M25.7 17.5667H23.6333V19.6333H25.7V17.5667Z" fill="white"/>
<path d="M30.8667 17.5667H28.8V19.6333H30.8667V17.5667Z" fill="white"/>
<path d="M12.7834 14.9833H10.7167V17.5667H8.13336V19.6333H10.7167V22.2167H12.7834V19.6333H15.3667V17.5667H12.7834V14.9833Z" fill="white"/>
</g>
<defs>
<filter id="filter0_d_1_39" x="0" y="0" width="39" height="38.9995" filterUnits="userSpaceOnUse" color-interpolation-filters="sRGB">
<feFlood flood-opacity="0" result="BackgroundImageFix"/>
<feColorMatrix in="SourceAlpha" type="matrix" values="0 0 0 0 0 0 0 0 0 0 0 0 0 0 0 0 0 0 127 0" result="hardAlpha"/>
<feOffset dy="4"/>
<feGaussianBlur stdDeviation="2"/>
<feComposite in2="hardAlpha" operator="out"/>
<feColorMatrix type="matrix" values="0 0 0 0 0 0 0 0 0 0 0 0 0 0 0 0 0 0 0.25 0"/>
<feBlend mode="normal" in2="BackgroundImageFix" result="effect1_dropShadow_1_39"/>
<feBlend mode="normal" in="SourceGraphic" in2="effect1_dropShadow_1_39" result="shape"/>
</filter>
</defs>
</svg>
