<svg width="46" height="46" viewBox="0 0 46 46" fill="none" xmlns="http://www.w3.org/2000/svg">
<path fill-rule="evenodd" clip-rule="evenodd" d="M24.8858 4.57782C24.193 2.22625 20.8642 2.22625 20.1714 4.57782L19.9067 5.4762C19.684 6.2308 19.2954 6.92604 18.7693 7.511C18.2431 8.09595 17.5928 8.55581 16.8659 8.85687C16.1391 9.15794 15.354 9.29259 14.5684 9.25097C13.7827 9.20935 13.0163 8.9925 12.3253 8.61632L11.503 8.16572C9.35136 6.99697 6.99697 9.34854 8.16853 11.503L8.61632 12.3253C8.9925 13.0163 9.20935 13.7827 9.25097 14.5684C9.29259 15.354 9.15794 16.1391 8.85687 16.8659C8.55581 17.5928 8.09595 18.2431 7.511 18.7693C6.92604 19.2954 6.2308 19.684 5.4762 19.9067L4.57782 20.1714C2.22625 20.8642 2.22625 24.193 4.57782 24.8858L5.4762 25.1505C6.23119 25.3731 6.92682 25.7618 7.51206 26.2881C8.09731 26.8144 8.55735 27.465 8.85846 28.1923C9.15956 28.9195 9.2941 29.7049 9.2522 30.4909C9.2103 31.2769 8.99303 32.0436 8.61632 32.7347L8.16572 33.5542C6.99697 35.7058 9.34854 38.0602 11.503 36.8887L12.3253 36.4409C13.0165 36.0647 13.7831 35.848 14.5689 35.8065C15.3547 35.7651 16.1398 35.9 16.8668 36.2014C17.5937 36.5027 18.244 36.9629 18.77 37.5481C19.296 38.1334 19.6843 38.829 19.9067 39.5838L20.1714 40.4794C20.8642 42.8309 24.193 42.8309 24.8858 40.4794L25.1505 39.581C25.3731 38.826 25.7618 38.1304 26.2881 37.5451C26.8144 36.9599 27.465 36.4998 28.1923 36.1987C28.9195 35.8976 29.7049 35.7631 30.4909 35.805C31.2769 35.8469 32.0436 36.0642 32.7347 36.4409L33.5542 36.8915C35.7058 38.0602 38.0602 35.7086 36.8887 33.5542L36.4409 32.7347C36.0642 32.0434 35.847 31.2766 35.8053 30.4904C35.7636 29.7043 35.8984 28.9187 36.1998 28.1915C36.5012 27.4642 36.9615 26.8136 37.5471 26.2874C38.1326 25.7612 38.8286 25.3727 39.5838 25.1505L40.4794 24.8858C42.8309 24.193 42.8309 20.8642 40.4794 20.1714L39.581 19.9067C38.8264 19.684 38.1311 19.2954 37.5462 18.7693C36.9612 18.2431 36.5014 17.5928 36.2003 16.8659C35.8993 16.1391 35.7646 15.354 35.8062 14.5684C35.8478 13.7827 36.0647 13.0163 36.4409 12.3253L36.8915 11.503C38.0602 9.35136 35.7086 6.99697 33.5542 8.16853L32.7347 8.61632C32.0435 8.99356 31.2766 9.21125 30.4902 9.25343C29.7039 9.2956 28.9181 9.16119 28.1905 8.86005C27.4629 8.55891 26.812 8.09868 26.2854 7.51313C25.7589 6.92759 25.3702 6.23159 25.1477 5.4762L24.8858 4.57782ZM17.4706 3.78082C18.9548 -1.26027 26.1024 -1.26027 27.5866 3.78082L27.8513 4.6792C27.955 5.0311 28.136 5.35534 28.3813 5.62816C28.6265 5.90098 28.9297 6.11546 29.2686 6.25588C29.6075 6.39631 29.9735 6.45911 30.3399 6.43969C30.7062 6.42027 31.0635 6.31912 31.3857 6.14365L32.208 5.69305C36.8267 3.18096 41.8791 8.23049 39.3613 12.8491L38.9135 13.6715C38.7381 13.9936 38.6369 14.351 38.6175 14.7173C38.5981 15.0836 38.6609 15.4497 38.8013 15.7886C38.9417 16.1275 39.1562 16.4307 39.429 16.6759C39.7019 16.9212 40.0261 17.1022 40.378 17.2059L41.2764 17.4706C46.3175 18.9548 46.3175 26.1024 41.2764 27.5866L40.378 27.8513C40.0261 27.955 39.7019 28.136 39.429 28.3813C39.1562 28.6265 38.9417 28.9297 38.8013 29.2686C38.6609 29.6075 38.5981 29.9735 38.6175 30.3399C38.6369 30.7062 38.7381 31.0635 38.9135 31.3857L39.3641 32.208C41.8791 36.8267 36.8239 41.8791 32.208 39.3613L31.3857 38.9135C31.0635 38.7381 30.7062 38.6369 30.3399 38.6175C29.9735 38.5981 29.6075 38.6609 29.2686 38.8013C28.9297 38.9417 28.6265 39.1562 28.3813 39.429C28.136 39.7019 27.955 40.0261 27.8513 40.378L27.5866 41.2764C26.1024 46.3175 18.9548 46.3175 17.4706 41.2764L17.2059 40.378C17.1022 40.0261 16.9212 39.7019 16.6759 39.429C16.4307 39.1562 16.1275 38.9417 15.7886 38.8013C15.4497 38.6609 15.0836 38.5981 14.7173 38.6175C14.351 38.6369 13.9936 38.7381 13.6715 38.9135L12.8491 39.3641C8.23049 41.8791 3.18096 36.8239 5.69587 32.208L6.14365 31.3857C6.31912 31.0635 6.42027 30.7062 6.43969 30.3399C6.45911 29.9735 6.39631 29.6075 6.25588 29.2686C6.11546 28.9297 5.90098 28.6265 5.62816 28.3813C5.35534 28.136 5.0311 27.955 4.6792 27.8513L3.78082 27.5866C-1.26027 26.1024 -1.26027 18.9548 3.78082 17.4706L4.6792 17.2059C5.0311 17.1022 5.35534 16.9212 5.62816 16.6759C5.90098 16.4307 6.11546 16.1275 6.25588 15.7886C6.39631 15.4497 6.45911 15.0836 6.43969 14.7173C6.42027 14.351 6.31912 13.9936 6.14365 13.6715L5.69305 12.8491C3.18096 8.23049 8.23331 3.18096 12.8491 5.69587L13.6715 6.14365C13.9936 6.31912 14.351 6.42027 14.7173 6.43969C15.0836 6.45911 15.4497 6.39631 15.7886 6.25588C16.1275 6.11546 16.4307 5.90098 16.6759 5.62816C16.9212 5.35534 17.1022 5.0311 17.2059 4.6792L17.4706 3.78082Z" fill="white"/>
<path fill-rule="evenodd" clip-rule="evenodd" d="M22.5281 16.2028C20.8506 16.2028 19.2417 16.8692 18.0555 18.0555C16.8693 19.2417 16.2028 20.8505 16.2028 22.5281C16.2028 24.2057 16.8693 25.8146 18.0555 27.0008C19.2417 28.187 20.8506 28.8534 22.5281 28.8534C24.2057 28.8534 25.8146 28.187 27.0008 27.0008C28.187 25.8146 28.8534 24.2057 28.8534 22.5281C28.8534 20.8505 28.187 19.2417 27.0008 18.0555C25.8146 16.8692 24.2057 16.2028 22.5281 16.2028ZM13.3866 22.5281C13.3866 21.3276 13.623 20.1389 14.0825 19.0298C14.5419 17.9207 15.2152 16.9129 16.0641 16.0641C16.913 15.2152 17.9207 14.5418 19.0298 14.0824C20.1389 13.623 21.3277 13.3866 22.5281 13.3866C23.7286 13.3866 24.9174 13.623 26.0265 14.0824C27.1356 14.5418 28.1433 15.2152 28.9922 16.0641C29.8411 16.9129 30.5144 17.9207 30.9738 19.0298C31.4332 20.1389 31.6697 21.3276 31.6697 22.5281C31.6697 24.9526 30.7066 27.2778 28.9922 28.9922C27.2778 30.7065 24.9526 31.6697 22.5281 31.6697C20.1037 31.6697 17.7785 30.7065 16.0641 28.9922C14.3497 27.2778 13.3866 24.9526 13.3866 22.5281Z" fill="white"/>
</svg>
